<svg width="47" height="47" viewBox="0 0 47 47" fill="none" xmlns="http://www.w3.org/2000/svg">
<rect width="47" height="47" rx="10" fill="#2F2F39"/>
<path d="M24.9711 36.8984H15.0672C14.9221 36.8984 14.783 36.8408 14.6805 36.7383C14.5779 36.6357 14.5203 36.4966 14.5203 36.3516C14.5203 36.2065 14.5779 36.0674 14.6805 35.9649C14.783 35.8623 14.9221 35.8047 15.0672 35.8047H24.9711C25.1161 35.8047 25.2552 35.8623 25.3578 35.9649C25.4604 36.0674 25.518 36.2065 25.518 36.3516C25.518 36.4966 25.4604 36.6357 25.3578 36.7383C25.2552 36.8408 25.1161 36.8984 24.9711 36.8984Z" fill="#CCBE27"/>
<path d="M14.8812 36.9476C14.7362 36.9476 14.5971 36.89 14.4945 36.7875C14.392 36.6849 14.3344 36.5458 14.3344 36.4008C14.75 24.9218 20.2187 17.7687 21.9031 15.8437C24.5937 12.7812 30.9047 8.94216 35.1758 7.78825C35.3139 7.75608 35.4591 7.7788 35.5807 7.85162C35.7024 7.92445 35.791 8.04168 35.8279 8.17859C35.8648 8.3155 35.8471 8.46139 35.7785 8.58548C35.7098 8.70957 35.5957 8.80216 35.4602 8.84372C31.3586 9.93747 25.2937 13.6343 22.7289 16.5711C21.0883 18.4195 15.8055 25.3211 15.4227 36.4226C15.417 36.5629 15.3577 36.6956 15.2569 36.7934C15.1561 36.8911 15.0216 36.9463 14.8812 36.9476Z" fill="#CCBE27"/>
<path d="M21.925 12.8742C21.8042 12.8739 21.6869 12.8335 21.5914 12.7594C21.4771 12.6708 21.4025 12.5404 21.384 12.3969C21.3656 12.2534 21.4048 12.1085 21.493 11.9938C23.2977 9.64221 27.1695 7.0008 35.3672 7.77189C35.5122 7.78567 35.6459 7.8565 35.7387 7.96881C35.8315 8.08111 35.8759 8.22568 35.8621 8.37072C35.8483 8.51576 35.7775 8.64939 35.6652 8.7422C35.5529 8.83502 35.4083 8.87942 35.2633 8.86564C27.5687 8.14377 23.9977 10.5063 22.3625 12.6938C22.3077 12.7547 22.24 12.8025 22.1643 12.8338C22.0886 12.865 22.0068 12.8788 21.925 12.8742ZM14.0992 28.2031C14.0111 28.203 13.9242 28.1815 13.8461 28.1406C13.7681 28.0996 13.701 28.0404 13.6508 27.968C11.1844 24.4461 12.2453 21.9524 13.268 19.5188L13.3336 19.3656C13.3681 19.284 13.422 19.2119 13.4906 19.1557C13.5592 19.0995 13.6405 19.0608 13.7273 19.043C13.8148 19.0247 13.9053 19.0281 13.9911 19.0529C14.0769 19.0777 14.1553 19.1231 14.2195 19.1852L15.4172 20.3555C15.8437 18.343 16.9375 13.886 18.7914 11.9227C18.8817 11.8275 19.0032 11.768 19.1337 11.755C19.2642 11.7419 19.395 11.7762 19.5023 11.8516C19.7703 12.0375 21.143 13.0328 21.3016 14.0391C21.3123 14.1102 21.309 14.1827 21.2917 14.2525C21.2745 14.3223 21.2436 14.388 21.201 14.4459C21.1583 14.5038 21.1047 14.5528 21.0431 14.5899C20.9816 14.6271 20.9133 14.6517 20.8422 14.6625C20.7711 14.6733 20.6986 14.67 20.6288 14.6527C20.5589 14.6354 20.4932 14.6046 20.4353 14.5619C20.3774 14.5193 20.3285 14.4657 20.2914 14.4041C20.2542 14.3425 20.2295 14.2742 20.2187 14.2031C20.0091 13.7351 19.6788 13.3312 19.2617 13.0328C17.3203 15.5813 16.3086 21.4656 16.2977 21.5313C16.2808 21.6292 16.2376 21.7208 16.1726 21.796C16.1076 21.8713 16.0233 21.9274 15.9288 21.9583C15.8344 21.9892 15.7332 21.9938 15.6363 21.9716C15.5394 21.9493 15.4504 21.9011 15.3789 21.8321L14.0227 20.5141C13.1258 22.7016 12.5898 24.5445 14.5367 27.3227C14.5787 27.3815 14.6086 27.448 14.6247 27.5184C14.6408 27.5888 14.6428 27.6617 14.6306 27.7328C14.6184 27.804 14.5923 27.8721 14.5536 27.9331C14.515 27.9941 14.4646 28.0469 14.4055 28.0883C14.3175 28.1569 14.2106 28.197 14.0992 28.2031Z" fill="#CCBE27"/>
<path d="M25.0969 24.4844H25.0203L22.2859 24.1016C22.1719 24.0848 22.066 24.0324 21.9835 23.9519C21.901 23.8713 21.8461 23.7668 21.8266 23.6531C21.8075 23.5397 21.8248 23.4231 21.8758 23.32C21.9269 23.2169 22.0092 23.1326 22.1109 23.0789C22.1383 23.0789 24.7141 21.7117 25.9391 19.8414C26.6609 18.7477 27.2406 17.7797 27.6125 17.1399H26.0703C25.951 17.1387 25.8353 17.0984 25.7409 17.0253C25.6466 16.9522 25.5788 16.8503 25.5478 16.735C25.5168 16.6197 25.5244 16.4975 25.5693 16.3869C25.6143 16.2764 25.6942 16.1836 25.7969 16.1227C27.1959 15.3682 28.536 14.509 29.8055 13.5524C29.9097 13.3939 30.0046 13.2296 30.0898 13.0602C31.1003 11.0826 32.5637 9.37177 34.3609 8.06721C34.4779 7.98306 34.6234 7.94849 34.7658 7.97102C34.9081 7.99355 35.0358 8.07136 35.1211 8.18753C35.1628 8.24664 35.1923 8.31343 35.208 8.38404C35.2237 8.45465 35.2253 8.52767 35.2126 8.59888C35.1998 8.67009 35.1731 8.73807 35.134 8.79888C35.0948 8.85969 35.0439 8.91213 34.9844 8.95315C33.3204 10.1594 31.9686 11.7456 31.0414 13.5797C30.9341 13.7948 30.8136 14.003 30.6805 14.2032C29.8813 14.9083 29.0064 15.5227 28.0719 16.0352H28.575C28.6699 16.0352 28.7632 16.0599 28.8456 16.1069C28.9281 16.1539 28.9969 16.2215 29.0453 16.3032C29.0933 16.3863 29.1186 16.4806 29.1186 16.5766C29.1186 16.6726 29.0933 16.7669 29.0453 16.85C29.0125 16.9157 28.1867 18.425 26.8578 20.4375C26.0708 21.5389 25.0861 22.4846 23.9539 23.2266L25.157 23.3961C25.3021 23.4063 25.4371 23.4736 25.5325 23.5834C25.6279 23.6931 25.6758 23.8362 25.6656 23.9813C25.6555 24.1263 25.5881 24.2614 25.4784 24.3568C25.3686 24.4521 25.2255 24.5 25.0805 24.4899L25.0969 24.4844ZM18.0312 30.0024C17.2724 29.9941 16.5154 29.9264 15.7672 29.8C15.6954 29.7889 15.6264 29.7637 15.5644 29.726C15.5023 29.6882 15.4482 29.6386 15.4053 29.5799C15.3624 29.5213 15.3315 29.4547 15.3143 29.3841C15.2971 29.3135 15.2939 29.2402 15.3051 29.1684C15.3162 29.0966 15.3414 29.0276 15.3791 28.9656C15.4169 28.9035 15.4665 28.8494 15.5252 28.8065C15.5838 28.7636 15.6504 28.7327 15.721 28.7155C15.7916 28.6983 15.8649 28.6951 15.9367 28.7063C18.6711 29.1383 20.6945 28.9578 22.8219 26.7649C23.1187 26.4623 23.3998 26.1447 23.6641 25.8133C23.7543 25.7006 23.8854 25.6282 24.0288 25.6118C24.1723 25.5954 24.3164 25.6364 24.4297 25.7258C24.4867 25.7701 24.5343 25.8253 24.5699 25.8882C24.6054 25.951 24.6282 26.0203 24.6368 26.092C24.6455 26.1637 24.6398 26.2364 24.6202 26.3059C24.6006 26.3754 24.5675 26.4403 24.5227 26.4969C24.2602 26.825 23.9758 27.1696 23.6094 27.525C22.9155 28.3186 22.057 28.9513 21.0936 29.3792C20.1303 29.807 19.0852 30.0197 18.0312 30.0024ZM32.9008 36.8985H27.5906C27.4456 36.8985 27.3065 36.8408 27.2039 36.7383C27.1014 36.6357 27.0437 36.4966 27.0437 36.3516C27.0437 36.2065 27.1014 36.0674 27.2039 35.9649C27.3065 35.8623 27.4456 35.8047 27.5906 35.8047H32.9008C33.0458 35.8047 33.1849 35.8623 33.2875 35.9649C33.39 36.0674 33.4477 36.2065 33.4477 36.3516C33.4477 36.4966 33.39 36.6357 33.2875 36.7383C33.1849 36.8408 33.0458 36.8985 32.9008 36.8985ZM28.6789 39.3594H11.682C11.537 39.3594 11.3979 39.3018 11.2953 39.1992C11.1928 39.0967 11.1352 38.9576 11.1352 38.8125C11.1352 38.6675 11.1928 38.5284 11.2953 38.4258C11.3979 38.3233 11.537 38.2657 11.682 38.2657H28.6789C28.8239 38.2657 28.963 38.3233 29.0656 38.4258C29.1682 38.5284 29.2258 38.6675 29.2258 38.8125C29.2258 38.9576 29.1682 39.0967 29.0656 39.1992C28.963 39.3018 28.8239 39.3594 28.6789 39.3594Z" fill="#CCBE27"/>
</svg>
