<svg width="12" height="17" viewBox="0 0 12 17" fill="none" xmlns="http://www.w3.org/2000/svg">
<path d="M5.99999 10.6667C5.30555 10.6667 4.71527 10.4236 4.22916 9.9375C3.74305 9.45139 3.49999 8.86111 3.49999 8.16666V3.16666C3.49999 2.47222 3.74305 1.88194 4.22916 1.39583C4.71527 0.90972 5.30555 0.666664 5.99999 0.666664C6.69443 0.666664 7.28471 0.90972 7.77082 1.39583C8.25693 1.88194 8.49999 2.47222 8.49999 3.16666V8.16666C8.49999 8.86111 8.25693 9.45139 7.77082 9.9375C7.28471 10.4236 6.69443 10.6667 5.99999 10.6667ZM5.16666 16.5V13.9375C3.72221 13.7431 2.52777 13.0972 1.58332 12C0.638879 10.9028 0.166656 9.625 0.166656 8.16666H1.83332C1.83332 9.31944 2.23957 10.3021 3.05207 11.1146C3.86457 11.9271 4.84721 12.3333 5.99999 12.3333C7.15277 12.3333 8.13541 11.9271 8.94791 11.1146C9.76041 10.3021 10.1667 9.31944 10.1667 8.16666H11.8333C11.8333 9.625 11.3611 10.9028 10.4167 12C9.47221 13.0972 8.27777 13.7431 6.83332 13.9375V16.5H5.16666Z" fill="white"/>
</svg>
