<svg width="24" height="23" viewBox="0 0 24 23" fill="none" xmlns="http://www.w3.org/2000/svg">
<path fill-rule="evenodd" clip-rule="evenodd" d="M17.1002 5.6C17.1002 8.41665 14.8169 10.7 12.0002 10.7C9.18356 10.7 6.90021 8.41665 6.90021 5.6C6.90021 2.78335 9.18356 0.5 12.0002 0.5C14.8169 0.5 17.1002 2.78335 17.1002 5.6ZM15.4002 5.6C15.4002 7.47777 13.878 9 12.0002 9C10.1224 9 8.60021 7.47777 8.60021 5.6C8.60021 3.72223 10.1224 2.2 12.0002 2.2C13.878 2.2 15.4002 3.72223 15.4002 5.6Z" fill="#4F378A"/>
<path d="M12.0002 13.25C6.49698 13.25 1.80809 16.5042 0.0219727 21.0632C0.457083 21.4953 0.91544 21.904 1.395 22.2872C2.72503 18.1015 6.89742 14.95 12.0002 14.95C17.103 14.95 21.2754 18.1015 22.6054 22.2873C23.085 21.904 23.5433 21.4953 23.9785 21.0632C22.1923 16.5042 17.5034 13.25 12.0002 13.25Z" fill="#4F378A"/>
</svg>
