<svg width="46" height="46" viewBox="0 0 46 46" fill="none" xmlns="http://www.w3.org/2000/svg">
<rect width="46" height="46" rx="10" fill="#2F2F39"/>
<path d="M24.9292 9.38411C24.713 9.11499 24.3197 9.07218 24.0505 9.2883C23.7814 9.50449 23.7385 9.89786 23.9547 10.167L33.2437 21.7304C33.4602 21.9999 33.8536 22.0421 34.1224 21.8262C34.3915 21.6101 34.4344 21.2167 34.2182 20.9475L24.9292 9.38411ZM36.5588 18.456L27.8668 7.63568C27.6506 7.36655 27.2572 7.32374 26.9881 7.53986C26.7189 7.75605 26.6761 8.14943 26.8923 8.41855L35.5843 19.2388C35.8008 19.5083 36.1942 19.5505 36.4629 19.3346C36.7321 19.1184 36.7749 18.725 36.5588 18.456ZM22.6868 33.0401C22.3417 33.0401 22.0618 33.3199 22.0618 33.6651V37.6857H18.9368V28.9888C18.9368 28.6437 18.6569 28.3638 18.3118 28.3638C17.9667 28.3638 17.6868 28.6437 17.6868 28.9888V38.3107C17.6868 38.6558 17.9667 38.9357 18.3118 38.9357H22.6868C23.0319 38.9357 23.3118 38.6558 23.3118 38.3107V33.6651C23.3118 33.3199 23.0319 33.0401 22.6868 33.0401ZM22.6868 24.8494C22.3417 24.8494 22.0618 25.1293 22.0618 25.4744V31.1651C22.0618 31.5102 22.3417 31.7901 22.6868 31.7901C23.0319 31.7901 23.3118 31.5102 23.3118 31.1651V25.4744C23.3118 25.1293 23.0319 24.8494 22.6868 24.8494ZM20.5049 23.2525L21.0328 22.8286C21.3019 22.6124 21.3448 22.219 21.1286 21.9499C20.9124 21.6808 20.519 21.6379 20.2499 21.854L19.7221 22.2781C19.4529 22.4942 19.4101 22.8876 19.6263 23.1567C19.8428 23.4261 20.2362 23.4684 20.5049 23.2525Z" fill="#B354DC"/>
<path d="M35.9074 10.0779C33.1198 6.60768 28.0289 6.05243 24.5588 8.84005C22.8806 10.1882 21.8354 12.0896 21.5948 14.2179L20.5324 15.0713C19.8837 15.5925 19.7169 16.4941 20.0937 17.2034L14.3366 21.8279C14.0675 22.0441 14.0246 22.4375 14.2408 22.7066C14.4571 22.9758 14.8504 23.0187 15.1195 22.8024L20.8526 18.1971C21.0032 18.3846 24.3109 22.5023 24.7337 23.0286L15.1922 30.693C14.5866 31.1795 13.7026 31.0832 13.216 30.4775L11.0959 27.8381C10.6092 27.2325 10.7056 26.3486 11.3113 25.8619L13.1713 24.3682C13.4404 24.1521 13.4834 23.7587 13.2672 23.4895C13.0511 23.2203 12.6577 23.1775 12.3886 23.3936L10.5284 24.8873C9.5385 25.6827 9.28375 27.0203 9.78762 28.0875L8.95031 28.7602C8.21425 29.3514 8.09694 30.4256 8.68831 31.1618L9.4515 32.1119C10.043 32.8482 11.1207 32.9621 11.8531 32.3738L12.6904 31.7011C13.6211 32.421 14.9828 32.4647 15.9751 31.6674L25.5402 23.9842C26.1429 24.4993 27.0581 24.5442 27.717 24.0149L28.7789 23.1619C30.8771 23.3825 32.9659 22.7953 34.6697 21.4266C38.1478 18.6324 38.7018 13.5564 35.9074 10.0779ZM11.0704 31.3991C10.8734 31.5574 10.5843 31.5259 10.426 31.3289L9.66287 30.3789C9.50425 30.1814 9.53556 29.8932 9.73312 29.7346L10.5126 29.1083L11.8498 30.7729L11.0704 31.3991ZM26.9341 23.0404C26.7369 23.1987 26.4488 23.1675 26.2903 22.9701C20.8299 16.1722 21.5777 17.1037 21.245 16.6896C21.0868 16.4926 21.1176 16.2046 21.3152 16.0457L22.095 15.4194L27.7138 22.414L26.9341 23.0404ZM28.9204 21.92L22.8376 14.3477C23.2652 10.6226 26.6224 7.94443 30.354 8.35118C34.1022 8.76012 36.8052 12.1242 36.3964 15.8731C35.9897 19.5998 32.6545 22.3061 28.9204 21.92Z" fill="#B354DC"/>
</svg>
